# 3ds Max Wavefront OBJ Exporter v0.97b - (c)2007 guruware
# ÆÄÀÏ »ý¼ºµÊ: 30.11.2021 17:01:52

#
# object Plane003
#

v  -3.5443 -1.1840 -3.4883
v  -3.5443 -2.3355 -3.4883
v  -2.0414 -1.1840 -3.4883
v  -2.0414 -2.3355 -3.4883
v  -0.5386 -1.1840 -3.4883
v  -0.5386 -2.3355 -3.4883
v  0.9643 -1.1840 -3.4883
v  0.9643 -2.3355 -3.4883
v  2.4671 -1.1840 -3.4883
v  2.4671 -2.3355 -3.4883
v  -3.5443 -0.0325 -3.4883
v  -2.0414 -0.0325 -3.4883
v  -0.5386 -0.0325 -3.4883
v  0.9643 -0.0325 -3.4883
v  2.4671 -0.0325 -3.4883
v  -3.5443 1.1191 -3.4883
v  -2.0414 1.1191 -3.4883
v  -0.5386 1.1191 -3.4883
v  0.9643 1.1191 -3.4883
v  2.4671 1.1191 -3.4883
v  -3.5443 2.2706 -3.4883
v  -2.0414 2.2706 -3.4883
v  -0.5386 2.2706 -3.4883
v  0.9643 2.2706 -3.4883
v  2.4671 2.2706 -3.4883
# 25 vertices

vn 0.0000 0.0000 1.0000
# 1 vertex normals

vt 0.0000 0.2500 0.0000
vt 0.0000 0.0000 0.0000
vt 0.2500 0.2500 0.0000
vt 0.2500 0.0000 0.0000
vt 0.5000 0.2500 0.0000
vt 0.5000 0.0000 0.0000
vt 0.7500 0.2500 0.0000
vt 0.7500 0.0000 0.0000
vt 1.0000 0.2500 0.0000
vt 1.0000 0.0000 0.0000
vt 0.0000 0.5000 0.0000
vt 0.2500 0.5000 0.0000
vt 0.5000 0.5000 0.0000
vt 0.7500 0.5000 0.0000
vt 1.0000 0.5000 0.0000
vt 0.0000 0.7500 0.0000
vt 0.2500 0.7500 0.0000
vt 0.5000 0.7500 0.0000
vt 0.7500 0.7500 0.0000
vt 1.0000 0.7500 0.0000
vt 0.0000 1.0000 0.0000
vt 0.2500 1.0000 0.0000
vt 0.5000 1.0000 0.0000
vt 0.7500 1.0000 0.0000
vt 1.0000 1.0000 0.0000
# 25 texture coords

o Plane003
g Plane003
s 1
f 1/1/1 2/2/1 3/3/1 
f 4/4/1 3/3/1 2/2/1 
f 3/3/1 4/4/1 5/5/1 
f 6/6/1 5/5/1 4/4/1 
f 5/5/1 6/6/1 7/7/1 
f 8/8/1 7/7/1 6/6/1 
f 7/7/1 8/8/1 9/9/1 
f 10/10/1 9/9/1 8/8/1 
f 11/11/1 1/1/1 12/12/1 
f 3/3/1 12/12/1 1/1/1 
f 12/12/1 3/3/1 13/13/1 
f 5/5/1 13/13/1 3/3/1 
f 13/13/1 5/5/1 14/14/1 
f 7/7/1 14/14/1 5/5/1 
f 14/14/1 7/7/1 15/15/1 
f 9/9/1 15/15/1 7/7/1 
f 16/16/1 11/11/1 17/17/1 
f 12/12/1 17/17/1 11/11/1 
f 17/17/1 12/12/1 18/18/1 
f 13/13/1 18/18/1 12/12/1 
f 18/18/1 13/13/1 19/19/1 
f 14/14/1 19/19/1 13/13/1 
f 19/19/1 14/14/1 20/20/1 
f 15/15/1 20/20/1 14/14/1 
f 21/21/1 16/16/1 22/22/1 
f 17/17/1 22/22/1 16/16/1 
f 22/22/1 17/17/1 23/23/1 
f 18/18/1 23/23/1 17/17/1 
f 23/23/1 18/18/1 24/24/1 
f 19/19/1 24/24/1 18/18/1 
f 24/24/1 19/19/1 25/25/1 
f 20/20/1 25/25/1 19/19/1 
# 32 faces

#
# object Plane004
#

v  -3.5342 -2.3501 0.5090
v  -3.5342 -2.3501 1.8407
v  -2.0427 -2.3501 0.5090
v  -2.0427 -2.3501 1.8407
v  -0.5512 -2.3501 0.5090
v  -0.5512 -2.3501 1.8407
v  0.9402 -2.3501 0.5090
v  0.9402 -2.3501 1.8407
v  2.4317 -2.3501 0.5090
v  2.4317 -2.3501 1.8407
v  -3.5342 -2.3501 -0.8226
v  -2.0427 -2.3501 -0.8226
v  -0.5512 -2.3501 -0.8226
v  0.9402 -2.3501 -0.8226
v  2.4317 -2.3501 -0.8226
v  -3.5342 -2.3501 -2.1543
v  -2.0427 -2.3501 -2.1543
v  -0.5512 -2.3501 -2.1543
v  0.9402 -2.3501 -2.1543
v  2.4317 -2.3501 -2.1543
v  -3.5342 -2.3501 -3.4860
v  -2.0427 -2.3501 -3.4860
v  -0.5512 -2.3501 -3.4860
v  0.9402 -2.3501 -3.4860
v  2.4317 -2.3501 -3.4860
# 25 vertices

vn 0.0000 1.0000 -0.0000
# 1 vertex normals

vt 0.0000 0.2500 0.0000
vt 0.0000 0.0000 0.0000
vt 0.2500 0.2500 0.0000
vt 0.2500 0.0000 0.0000
vt 0.5000 0.2500 0.0000
vt 0.5000 0.0000 0.0000
vt 0.7500 0.2500 0.0000
vt 0.7500 0.0000 0.0000
vt 1.0000 0.2500 0.0000
vt 1.0000 0.0000 0.0000
vt 0.0000 0.5000 0.0000
vt 0.2500 0.5000 0.0000
vt 0.5000 0.5000 0.0000
vt 0.7500 0.5000 0.0000
vt 1.0000 0.5000 0.0000
vt 0.0000 0.7500 0.0000
vt 0.2500 0.7500 0.0000
vt 0.5000 0.7500 0.0000
vt 0.7500 0.7500 0.0000
vt 1.0000 0.7500 0.0000
vt 0.0000 1.0000 0.0000
vt 0.2500 1.0000 0.0000
vt 0.5000 1.0000 0.0000
vt 0.7500 1.0000 0.0000
vt 1.0000 1.0000 0.0000
# 25 texture coords

o Plane004
g Plane004
s 1
f 26/26/2 27/27/2 28/28/2 
f 29/29/2 28/28/2 27/27/2 
f 28/28/2 29/29/2 30/30/2 
f 31/31/2 30/30/2 29/29/2 
f 30/30/2 31/31/2 32/32/2 
f 33/33/2 32/32/2 31/31/2 
f 32/32/2 33/33/2 34/34/2 
f 35/35/2 34/34/2 33/33/2 
f 36/36/2 26/26/2 37/37/2 
f 28/28/2 37/37/2 26/26/2 
f 37/37/2 28/28/2 38/38/2 
f 30/30/2 38/38/2 28/28/2 
f 38/38/2 30/30/2 39/39/2 
f 32/32/2 39/39/2 30/30/2 
f 39/39/2 32/32/2 40/40/2 
f 34/34/2 40/40/2 32/32/2 
f 41/41/2 36/36/2 42/42/2 
f 37/37/2 42/42/2 36/36/2 
f 42/42/2 37/37/2 43/43/2 
f 38/38/2 43/43/2 37/37/2 
f 43/43/2 38/38/2 44/44/2 
f 39/39/2 44/44/2 38/38/2 
f 44/44/2 39/39/2 45/45/2 
f 40/40/2 45/45/2 39/39/2 
f 46/46/2 41/41/2 47/47/2 
f 42/42/2 47/47/2 41/41/2 
f 47/47/2 42/42/2 48/48/2 
f 43/43/2 48/48/2 42/42/2 
f 48/48/2 43/43/2 49/49/2 
f 44/44/2 49/49/2 43/43/2 
f 49/49/2 44/44/2 50/50/2 
f 45/45/2 50/50/2 44/44/2 
# 32 faces

#
# object Plane001
#

v  -3.5354 -1.1992 -3.4936
v  -3.5354 -2.3582 -3.4936
v  -3.5354 -1.1992 -2.1622
v  -3.5354 -2.3582 -2.1622
v  -3.5354 -1.1992 -0.8307
v  -3.5354 -2.3582 -0.8307
v  -3.5354 -1.1992 0.5007
v  -3.5354 -2.3582 0.5007
v  -3.5354 -1.1992 1.8322
v  -3.5354 -2.3582 1.8322
v  -3.5354 -0.0403 -3.4936
v  -3.5354 -0.0403 -2.1622
v  -3.5354 -0.0403 -0.8307
v  -3.5354 -0.0403 0.5007
v  -3.5354 -0.0403 1.8322
v  -3.5354 1.1187 -3.4936
v  -3.5354 1.1187 -2.1622
v  -3.5354 1.1187 -0.8307
v  -3.5354 1.1187 0.5007
v  -3.5354 1.1187 1.8322
v  -3.5354 2.2777 -3.4936
v  -3.5354 2.2777 -2.1622
v  -3.5354 2.2777 -0.8307
v  -3.5354 2.2777 0.5007
v  -3.5354 2.2777 1.8322
# 25 vertices

vn -1.0000 0.0000 -0.0000
# 1 vertex normals

vt 0.0000 0.2500 0.0000
vt 0.0000 0.0000 0.0000
vt 0.2500 0.2500 0.0000
vt 0.2500 0.0000 0.0000
vt 0.5000 0.2500 0.0000
vt 0.5000 0.0000 0.0000
vt 0.7500 0.2500 0.0000
vt 0.7500 0.0000 0.0000
vt 1.0000 0.2500 0.0000
vt 1.0000 0.0000 0.0000
vt 0.0000 0.5000 0.0000
vt 0.2500 0.5000 0.0000
vt 0.5000 0.5000 0.0000
vt 0.7500 0.5000 0.0000
vt 1.0000 0.5000 0.0000
vt 0.0000 0.7500 0.0000
vt 0.2500 0.7500 0.0000
vt 0.5000 0.7500 0.0000
vt 0.7500 0.7500 0.0000
vt 1.0000 0.7500 0.0000
vt 0.0000 1.0000 0.0000
vt 0.2500 1.0000 0.0000
vt 0.5000 1.0000 0.0000
vt 0.7500 1.0000 0.0000
vt 1.0000 1.0000 0.0000
# 25 texture coords

o Plane001
g Plane001
s 1
f 51/51/3 52/52/3 53/53/3 
f 54/54/3 53/53/3 52/52/3 
f 53/53/3 54/54/3 55/55/3 
f 56/56/3 55/55/3 54/54/3 
f 55/55/3 56/56/3 57/57/3 
f 58/58/3 57/57/3 56/56/3 
f 57/57/3 58/58/3 59/59/3 
f 60/60/3 59/59/3 58/58/3 
f 61/61/3 51/51/3 62/62/3 
f 53/53/3 62/62/3 51/51/3 
f 62/62/3 53/53/3 63/63/3 
f 55/55/3 63/63/3 53/53/3 
f 63/63/3 55/55/3 64/64/3 
f 57/57/3 64/64/3 55/55/3 
f 64/64/3 57/57/3 65/65/3 
f 59/59/3 65/65/3 57/57/3 
f 66/66/3 61/61/3 67/67/3 
f 62/62/3 67/67/3 61/61/3 
f 67/67/3 62/62/3 68/68/3 
f 63/63/3 68/68/3 62/62/3 
f 68/68/3 63/63/3 69/69/3 
f 64/64/3 69/69/3 63/63/3 
f 69/69/3 64/64/3 70/70/3 
f 65/65/3 70/70/3 64/64/3 
f 71/71/3 66/66/3 72/72/3 
f 67/67/3 72/72/3 66/66/3 
f 72/72/3 67/67/3 73/73/3 
f 68/68/3 73/73/3 67/67/3 
f 73/73/3 68/68/3 74/74/3 
f 69/69/3 74/74/3 68/68/3 
f 74/74/3 69/69/3 75/75/3 
f 70/70/3 75/75/3 69/69/3 
# 32 faces

